<svg width="32" height="32" xmlns="http://www.w3.org/2000/svg"><path d="M31.989 31.203L29.357 8.927c-.044-.36-.395-.638-.79-.638h-4.869V6.934C23.698 3.108 20.277 0 16.066 0S8.433 3.108 8.433 6.934v1.355h-5c-.395 0-.746.279-.79.638L.011 31.203c-.043.2.044.399.176.558.131.16.35.239.57.239h30.486c.22 0 .439-.08.57-.24.132-.159.22-.358.176-.557zm-9.08-18.89c.394 0 .701.28.701.638 0 .36-.307.638-.701.638-.395 0-.702-.279-.702-.638 0-.358.307-.637.702-.637zM10.013 6.935c0-3.029 2.72-5.5 6.053-5.5 3.334 0 6.053 2.471 6.053 5.5V8.29H10.012V6.934zm-.79 5.38c.395 0 .702.279.702.637 0 .36-.307.638-.702.638-.395 0-.702-.279-.702-.638 0-.358.307-.637.702-.637zM1.678 30.526L4.135 9.684h4.298v1.315c-.877.279-1.491 1.036-1.491 1.913 0 1.115 1.009 2.032 2.237 2.032 1.228 0 2.237-.917 2.237-2.032 0-.877-.614-1.634-1.491-1.913V9.684H22.03v1.315c-.877.279-1.491 1.036-1.491 1.913 0 1.115 1.009 2.032 2.237 2.032 1.228 0 2.237-.917 2.237-2.032 0-.877-.614-1.634-1.491-1.913V9.684h4.474l2.456 20.842H1.678z"/></svg>