<svg width="19" height="17" fill="none" xmlns="http://www.w3.org/2000/svg"><path d="M18.957 12.14a1.267 1.267 0 00-1.027-.93V3.85h.63a.318.318 0 00.314-.322V.321A.318.318 0 0018.559 0H4.72a.318.318 0 00-.315.32v3.208c0 .177.14.321.314.321h.63v6.415h-.315a3.994 3.994 0 00-2.202.657v-1.62c0-.176-.14-.32-.314-.32H.315a.318.318 0 00-.315.32v7.378c0 .177.14.321.315.321h2.202a.318.318 0 00.314-.32v-1.62a4 4 0 002.202.657h5.165a4.07 4.07 0 001.06-.143l6.81-1.86a1.29 1.29 0 00.89-1.574zM5.033.642h13.212v2.566H5.033V.642zm.944 3.207H17.3v7.417l-3.65.998a1.273 1.273 0 00-.833-.745L8.58 10.36a2.806 2.806 0 00-.732-.096H5.977V3.85zM2.202 16.36H.629V9.622h1.573v6.736zm15.703-3.265l-6.81 1.86a3.44 3.44 0 01-.897.121H5.033a3.393 3.393 0 01-2.076-.705l-.126-.096v-2.566l.126-.097a3.391 3.391 0 012.076-.705h2.815c.193 0 .384.025.57.075l4.237 1.158c.25.07.434.29.462.553a.32.32 0 00.013.038.328.328 0 00-.008.042.631.631 0 01-.791.607l-2.674-.73a.31.31 0 00-.31.078.325.325 0 00-.083.315c.03.112.119.2.23.226l2.674.732a1.26 1.26 0 001.574-1.096l3.834-1.049a.63.63 0 01.794.619.64.64 0 01-.465.62z" fill="#ADADAD"/></svg>