<svg width="16" height="15" fill="none" xmlns="http://www.w3.org/2000/svg"><path d="M15.04 0H.96a.945.945 0 00-.679.29C.101.476 0 .728 0 .991v10.574c0 .263.101.515.281.701.18.186.424.29.679.29h2.069L4.32 14.56a.972.972 0 00.346.324.936.936 0 00.906 0 .972.972 0 00.345-.324l1.294-2.002h7.829a.945.945 0 00.679-.29c.18-.187.281-.439.281-.702V.991c0-.263-.101-.515-.281-.7A.945.945 0 0015.04 0zm.32 11.565a.336.336 0 01-.094.234.315.315 0 01-.226.097h-8a.313.313 0 00-.266.147L5.386 14.19a.332.332 0 01-.266.14.32.32 0 01-.266-.14l-1.388-2.148a.313.313 0 00-.266-.147H.96a.315.315 0 01-.226-.097.336.336 0 01-.094-.234V.991C.64.904.674.82.734.758A.315.315 0 01.96.66h14.08c.085 0 .166.035.226.097s.094.146.094.233v10.574z" fill="#ADADAD"/><path d="M12.822 4.016H3.178a.336.336 0 00-.227.086.284.284 0 00-.094.209c0 .078.034.153.094.209.06.055.142.086.227.086h9.644a.336.336 0 00.227-.086.284.284 0 00.094-.21.284.284 0 00-.094-.208.336.336 0 00-.227-.086zm0 1.889H3.178a.307.307 0 00-.227.104.374.374 0 00-.094.25c0 .095.034.185.094.251.06.067.142.104.227.104h9.644a.306.306 0 00.227-.104.373.373 0 00.094-.25.373.373 0 00-.094-.25.306.306 0 00-.227-.105zm0 2.127H3.178a.335.335 0 00-.227.086.284.284 0 00-.094.209c0 .078.034.153.094.209.06.055.142.086.227.086h9.644a.335.335 0 00.227-.086.284.284 0 00.094-.209.284.284 0 00-.094-.209.335.335 0 00-.227-.086z" fill="#ADADAD"/></svg>