<svg width="222" height="62" fill="none" xmlns="http://www.w3.org/2000/svg"><path d="M3.32 11h12.72c3.04 0 5.72.587 8.04 1.76 2.347 1.147 4.16 2.773 5.44 4.88 1.307 2.107 1.96 4.56 1.96 7.36 0 2.8-.653 5.253-1.96 7.36-1.28 2.107-3.093 3.747-5.44 4.92-2.32 1.147-5 1.72-8.04 1.72H3.32V11zm12.4 22.68c2.8 0 5.027-.773 6.68-2.32 1.68-1.573 2.52-3.693 2.52-6.36 0-2.667-.84-4.773-2.52-6.32-1.653-1.573-3.88-2.36-6.68-2.36H9.8v17.36h5.92zM54.416 33h-13l-2.48 6h-6.64l12.48-28h6.4l12.52 28h-6.8l-2.48-6zm-2.04-4.92l-4.44-10.72-4.44 10.72h8.88zM92.281 11v28h-5.32l-13.96-17v17h-6.4V11h5.36l13.92 17V11h6.4zm28.305 22.8V39h-21.68V11h21.16v5.2h-14.72v6.08h13v5.04h-13v6.48h15.24zm15.356-5.8l-3.76 3.92V39h-6.44V11h6.44v13.08l12.4-13.08h7.2l-11.6 12.48L152.462 39h-7.56l-8.96-11zm21.329 11.32c-1.093 0-2.013-.373-2.76-1.12-.746-.747-1.12-1.68-1.12-2.8 0-1.147.374-2.067 1.12-2.76.747-.72 1.667-1.08 2.76-1.08 1.094 0 2.014.36 2.76 1.08.747.693 1.12 1.613 1.12 2.76 0 1.12-.373 2.053-1.12 2.8-.746.747-1.666 1.12-2.76 1.12zM176.02 28l-3.76 3.92V39h-6.44V11h6.44v13.08L184.66 11h7.2l-11.6 12.48L192.54 39h-7.56l-8.96-11zm37.314-3.44h5.92v11.36c-1.52 1.147-3.28 2.027-5.28 2.64-2 .613-4.014.92-6.04.92-2.907 0-5.52-.613-7.84-1.84-2.32-1.253-4.147-2.973-5.48-5.16-1.307-2.213-1.96-4.707-1.96-7.48 0-2.773.653-5.253 1.96-7.44 1.333-2.213 3.173-3.933 5.52-5.16 2.346-1.253 4.986-1.88 7.92-1.88 2.453 0 4.68.413 6.68 1.24s3.68 2.027 5.04 3.6l-4.16 3.84c-2-2.107-4.414-3.16-7.24-3.16-1.787 0-3.374.373-4.76 1.12a8.03 8.03 0 00-3.24 3.16c-.774 1.36-1.16 2.92-1.16 4.68 0 1.733.386 3.28 1.16 4.64a8.381 8.381 0 003.2 3.2c1.386.747 2.96 1.12 4.72 1.12 1.866 0 3.546-.4 5.04-1.2v-8.2z" fill="#fff"/><path d="M3.526 49.2h1.386v7.56l5.796-7.56h1.288V59h-1.372v-7.546L4.814 59H3.526v-9.8zm11.301 2.38h1.344v3.15H20.4v-3.15h1.344V59H20.4v-3.108h-4.228V59h-1.344v-7.42zm15.06 1.176H27.17V59h-1.344v-6.244H23.11V51.58h6.776v1.176zm7.752 2.576c0 .103-.01.238-.028.406h-6.02c.084.653.368 1.18.854 1.582.495.392 1.106.588 1.834.588.886 0 1.6-.299 2.142-.896l.742.868a3.24 3.24 0 01-1.26.896 4.31 4.31 0 01-1.666.308c-.784 0-1.48-.159-2.086-.476a3.539 3.539 0 01-1.414-1.358c-.327-.579-.49-1.232-.49-1.96 0-.719.159-1.367.476-1.946A3.473 3.473 0 0132.053 52a3.784 3.784 0 011.918-.49c.71 0 1.34.163 1.89.49.56.317.994.765 1.302 1.344.317.579.476 1.241.476 1.988zm-3.668-2.688c-.644 0-1.185.196-1.624.588-.43.392-.681.905-.756 1.54h4.76c-.075-.625-.331-1.134-.77-1.526-.43-.401-.966-.602-1.61-.602zm9.687-1.134c.718 0 1.362.159 1.932.476a3.37 3.37 0 011.33 1.33c.326.57.49 1.227.49 1.974 0 .747-.163 1.41-.49 1.988a3.376 3.376 0 01-1.33 1.33c-.57.317-1.214.476-1.932.476a3.486 3.486 0 01-1.47-.308 3.058 3.058 0 01-1.12-.896v3.836h-1.344V51.58h1.288v1.176c.298-.41.676-.719 1.134-.924a3.513 3.513 0 011.512-.322zm-.112 6.398c.476 0 .9-.107 1.274-.322a2.37 2.37 0 00.896-.924c.224-.401.336-.859.336-1.372 0-.513-.112-.966-.336-1.358a2.252 2.252 0 00-.896-.924 2.51 2.51 0 00-1.274-.322c-.467 0-.892.112-1.274.336a2.398 2.398 0 00-.896.91c-.215.392-.322.845-.322 1.358 0 .513.107.97.322 1.372.215.392.513.7.896.924.383.215.807.322 1.274.322zm5.816-6.328h1.344v3.15h4.228v-3.15h1.345V59h-1.345v-3.108h-4.227V59h-1.345v-7.42zm16.236 3.752c0 .103-.01.238-.028.406h-6.02c.084.653.369 1.18.854 1.582.494.392 1.106.588 1.834.588.886 0 1.6-.299 2.142-.896l.742.868a3.24 3.24 0 01-1.26.896 4.309 4.309 0 01-1.666.308c-.784 0-1.48-.159-2.086-.476a3.54 3.54 0 01-1.414-1.358c-.327-.579-.49-1.232-.49-1.96 0-.719.158-1.367.476-1.946A3.473 3.473 0 0160.012 52a3.784 3.784 0 011.918-.49c.71 0 1.34.163 1.89.49.56.317.994.765 1.302 1.344.317.579.476 1.241.476 1.988zm-3.668-2.688c-.644 0-1.185.196-1.624.588-.43.392-.681.905-.756 1.54h4.76c-.075-.625-.332-1.134-.77-1.526-.43-.401-.966-.602-1.61-.602zm10.968.112h-2.716V59h-1.344v-6.244h-2.716V51.58h6.776v1.176zm.61 1.82h3.767v1.162h-3.766v-1.162zm14.418-2.996V59h-1.218v-5.418l-2.772 4.578h-.588l-2.744-4.592V59h-1.232v-7.42h1.386l2.912 5.012 2.996-5.012h1.26zm5.262-.07c1.027 0 1.81.252 2.352.756.55.504.826 1.255.826 2.254V59h-1.274v-.98a2.162 2.162 0 01-.966.798c-.41.177-.9.266-1.47.266-.83 0-1.498-.2-2.002-.602-.494-.401-.742-.929-.742-1.582s.238-1.176.714-1.568c.476-.401 1.232-.602 2.268-.602h2.128v-.266c0-.579-.168-1.022-.504-1.33-.336-.308-.83-.462-1.484-.462a3.82 3.82 0 00-1.288.224 3.22 3.22 0 00-1.064.574l-.56-1.008c.383-.308.84-.541 1.372-.7a5.593 5.593 0 011.694-.252zm-.308 6.538c.514 0 .957-.112 1.33-.336a2 2 0 00.812-.98v-1.036H92.95c-1.138 0-1.708.383-1.708 1.148 0 .373.145.667.434.882.29.215.69.322 1.204.322zm11.366-5.292h-4.116V59h-1.344v-7.42h5.46v1.176zm4.022-1.246c1.027 0 1.811.252 2.352.756.551.504.826 1.255.826 2.254V59h-1.274v-.98a2.162 2.162 0 01-.966.798c-.41.177-.9.266-1.47.266-.83 0-1.498-.2-2.002-.602-.494-.401-.742-.929-.742-1.582s.238-1.176.714-1.568c.476-.401 1.232-.602 2.268-.602h2.128v-.266c0-.579-.168-1.022-.504-1.33-.336-.308-.83-.462-1.484-.462a3.83 3.83 0 00-1.288.224 3.22 3.22 0 00-1.064.574l-.56-1.008c.383-.308.84-.541 1.372-.7a5.595 5.595 0 011.694-.252zm-.308 6.538c.514 0 .957-.112 1.33-.336.374-.233.644-.56.812-.98v-1.036h-2.072c-1.138 0-1.708.383-1.708 1.148 0 .373.145.667.434.882.29.215.691.322 1.204.322zm9.801-2.912c.495.13.878.34 1.148.63.271.29.406.649.406 1.078 0 .439-.149.83-.448 1.176-.298.336-.714.602-1.246.798-.522.187-1.11.28-1.764.28-.55 0-1.092-.07-1.624-.21a5.054 5.054 0 01-1.4-.63l.406-1.022a4.68 4.68 0 001.218.532c.458.121.92.182 1.386.182.635 0 1.139-.107 1.512-.322.383-.224.574-.523.574-.896 0-.345-.154-.611-.462-.798-.298-.187-.723-.28-1.274-.28h-1.358v-.966h1.26c.504 0 .901-.089 1.19-.266.29-.177.434-.42.434-.728 0-.336-.172-.597-.518-.784-.336-.187-.793-.28-1.372-.28-.737 0-1.516.191-2.338.574l-.364-1.036a6.227 6.227 0 012.842-.686c.598 0 1.134.084 1.61.252.476.168.85.406 1.12.714.271.308.406.658.406 1.05 0 .364-.121.69-.364.98-.242.29-.569.509-.98.658zm3.598-3.556h1.344v5.404l4.55-5.404h1.218V59h-1.344v-5.404L122.591 59h-1.232v-7.42zm9.72 0h1.344v3.15h4.228v-3.15h1.344V59h-1.344v-3.108h-4.228V59h-1.344v-7.42zm16.173 4.284h-1.54V59h-1.344v-7.42h1.344v3.136h1.568l2.408-3.136h1.442l-2.814 3.57 3.01 3.85h-1.582l-2.492-3.136zm5.484-4.284h1.344v3.15h4.228v-3.15h1.344V59h-1.344v-3.108h-4.228V59h-1.344v-7.42zm9.529 0h1.344v5.404l4.55-5.404h1.218V59h-1.344v-5.404L163.497 59h-1.232v-7.42zm15.181 1.176h-4.116V59h-1.344v-7.42h5.46v1.176z" fill="#ADADAD"/></svg>