<svg width="29" height="29" fill="none" xmlns="http://www.w3.org/2000/svg"><rect width="29" height="29" rx="3" fill="url(#paint0_linear)"/><path d="M21.965 12.115c-.033-.744-.154-1.256-.326-1.7a3.417 3.417 0 00-.81-1.241 3.447 3.447 0 00-1.24-.808c-.445-.172-.954-.292-1.698-.325-.75-.036-.988-.044-2.89-.044-1.901 0-2.14.008-2.886.041-.745.033-1.256.153-1.7.326-.47.177-.891.451-1.242.81-.355.35-.632.774-.807 1.239-.172.446-.292.955-.325 1.699-.036.75-.044.988-.044 2.89 0 1.9.008 2.139.041 2.886.033.744.153 1.256.326 1.699.177.47.454.892.81 1.242.35.356.774.632 1.239.807.446.173.955.293 1.699.326.747.033.985.04 2.887.04 1.901 0 2.14-.007 2.886-.04.744-.033 1.256-.153 1.7-.326a3.583 3.583 0 002.049-2.049c.172-.446.292-.955.325-1.7.033-.746.041-.984.041-2.886 0-1.901-.003-2.14-.035-2.886zm-1.262 5.718c-.03.684-.145 1.054-.24 1.3a2.323 2.323 0 01-1.33 1.33c-.247.095-.619.21-1.3.24-.739.033-.96.041-2.829.041-1.869 0-2.093-.008-2.83-.04-.683-.03-1.053-.146-1.299-.242a2.154 2.154 0 01-.804-.522c-.233-.227-.41-.5-.523-.804-.095-.247-.21-.619-.24-1.3-.033-.739-.041-.96-.041-2.83 0-1.868.008-2.092.04-2.828.03-.684.146-1.054.241-1.3.112-.304.29-.58.526-.804.227-.233.5-.41.804-.523.246-.096.618-.21 1.3-.24.738-.033.96-.042 2.829-.042 1.871 0 2.093.009 2.829.041.684.03 1.053.145 1.3.241.303.112.58.29.804.523.232.227.41.5.522.804.096.246.211.618.241 1.3.033.738.041.96.041 2.829 0 1.868-.008 2.087-.04 2.826z" fill="#fff"/><path d="M15.001 11.403a3.599 3.599 0 000 7.196 3.599 3.599 0 000-7.196zm0 5.932a2.334 2.334 0 11.001-4.668 2.334 2.334 0 010 4.668zm4.58-6.074a.84.84 0 11-1.68 0 .84.84 0 011.68 0z" fill="#fff"/><defs><linearGradient id="paint0_linear" x1="28.5" y1=".5" x2="0" y2="29" gradientUnits="userSpaceOnUse"><stop stop-color="#D800B9"/><stop offset=".479" stop-color="#FF0100" stop-opacity=".67"/><stop offset="1" stop-color="#FFD600" stop-opacity=".64"/></linearGradient></defs></svg>