<svg width="13" height="16" fill="none" xmlns="http://www.w3.org/2000/svg"><path d="M1.166 2.782C2.393 1.014 4.337 0 6.5 0c2.162 0 4.107 1.014 5.333 2.782 1.221 1.759 1.503 3.986.756 5.953-.2.537-.518 1.06-.942 1.548l-4.72 5.52a.563.563 0 01-.855 0l-4.718-5.518a5.089 5.089 0 01-.942-1.547c-.748-1.97-.466-4.197.754-5.956zm.298 5.565a3.988 3.988 0 00.744 1.211l4.292 5.02 4.294-5.023a3.99 3.99 0 00.742-1.212 5.326 5.326 0 00-.627-4.925 5.295 5.295 0 00-4.41-2.3 5.294 5.294 0 00-4.408 2.3 5.326 5.326 0 00-.627 4.929z" fill="#ADADAD"/><path d="M6.5 3.32a3.143 3.143 0 013.146 3.132A3.143 3.143 0 016.5 9.585a3.143 3.143 0 01-3.146-3.133A3.143 3.143 0 016.5 3.32zm0 5.146a2.02 2.02 0 002.022-2.014A2.02 2.02 0 006.5 4.438a2.02 2.02 0 00-2.023 2.014A2.02 2.02 0 006.5 8.466z" fill="#ADADAD"/></svg>