<svg width="20" height="20" fill="none" xmlns="http://www.w3.org/2000/svg"><path d="M18.503 14.842l-3.846-2.509a1.14 1.14 0 00-1.503.239l-1.12 1.41a.486.486 0 01-.615.126l-.213-.115c-.706-.377-1.585-.846-3.356-2.58C6.079 9.68 5.599 8.82 5.214 8.13l-.117-.209a.462.462 0 01.126-.602l1.44-1.096c.46-.353.567-.993.244-1.47L4.342.99A1.132 1.132 0 002.837.658l-1.608.945A2.234 2.234 0 00.194 2.917C-.385 4.98.051 8.544 5.417 13.793c4.267 4.175 7.444 5.297 9.627 5.297a5.729 5.729 0 001.489-.19 2.26 2.26 0 001.342-1.012l.967-1.572c.308-.501.16-1.15-.338-1.474zm-.207 1.156l-.965 1.573c-.213.357-.56.62-.966.733-1.948.523-5.351.09-10.501-4.95C.714 8.317.27 4.988.805 3.082c.116-.398.385-.737.75-.946l1.608-.944a.491.491 0 01.653.143L5.21 3.381l1.17 1.716a.47.47 0 01-.106.638l-1.44 1.096c-.438.327-.563.92-.293 1.391l.114.203c.405.727.908 1.63 2.745 3.427 1.837 1.796 2.76 2.289 3.501 2.685l.209.112a1.124 1.124 0 001.422-.287l1.12-1.409a.495.495 0 01.652-.103l3.846 2.509c.216.14.28.422.147.639zM10.767 3.6c2.971.004 5.38 2.36 5.383 5.267 0 .17.142.31.316.31a.313.313 0 00.317-.31c-.004-3.25-2.695-5.882-6.016-5.886a.313.313 0 00-.317.31c0 .17.142.31.317.31z" fill="#ADADAD"/><path d="M10.767 5.46c1.923.002 3.48 1.526 3.483 3.407 0 .171.142.31.316.31a.313.313 0 00.317-.31c-.002-2.223-1.844-4.025-4.116-4.027a.313.313 0 00-.317.31c0 .17.142.31.317.31z" fill="#ADADAD"/><path d="M10.767 7.318c.874 0 1.582.694 1.583 1.549 0 .17.142.31.317.31a.313.313 0 00.316-.31c-.001-1.197-.993-2.167-2.216-2.169a.313.313 0 00-.317.31c0 .171.142.31.317.31z" fill="#ADADAD"/></svg>