<svg width="29" height="29" fill="none" xmlns="http://www.w3.org/2000/svg"><rect width="29" height="29" rx="3" fill="#55ACEE"/><path d="M22.745 10.28c-.355.13-.724.233-1.103.307.418-.328.731-.737.908-1.195.05-.13-.12-.244-.264-.174a7.167 7.167 0 01-1.686.576.516.516 0 01-.4-.082C19.568 9.252 18.757 9 17.916 9c-.364 0-.732.047-1.093.14-1.119.286-1.982 1.049-2.252 1.99a2.51 2.51 0 00-.082 1.05.092.092 0 01-.031.08.14.14 0 01-.108.034c-2.448-.188-4.656-1.162-6.216-2.745-.08-.08-.232-.07-.296.02a2.482 2.482 0 00-.467 1.433c0 .773.376 1.501 1.028 2.032a3.506 3.506 0 01-.786-.252c-.12-.055-.267.016-.268.129-.017 1.148.796 2.17 2.014 2.63a3.613 3.613 0 01-.655-.045c-.134-.022-.247.084-.205.191.395 1.021 1.458 1.773 2.73 1.944-1.055.586-2.285.895-3.564.895h-.4c-.122 0-.226.066-.258.164-.03.097.026.2.131.25 1.442.693 3.087 1.06 4.758 1.06 1.462 0 2.83-.24 4.065-.713a9.046 9.046 0 002.975-1.842 7.943 7.943 0 001.821-2.521c.405-.895.62-1.849.62-2.76v-.043a.46.46 0 01.219-.378 6.2 6.2 0 001.372-1.244c.1-.124-.058-.28-.224-.22z" fill="#fff"/></svg>