<svg width="33" height="33" xmlns="http://www.w3.org/2000/svg"><path d="M33 16.5C33 7.402 25.598 0 16.5 0 7.402 0 0 7.402 0 16.5c0 4.805 2.066 9.137 5.356 12.155l-.016.014.535.45c.035.03.073.054.108.083.284.236.579.46.879.676a16.803 16.803 0 001.279.838 16.465 16.465 0 001.349.715l.084.038a16.351 16.351 0 003.99 1.263l.111.02c.435.075.874.135 1.318.175l.163.013c.443.037.89.06 1.344.06.45 0 .893-.023 1.333-.059l.168-.012c.44-.04.876-.099 1.306-.173l.113-.02a16.35 16.35 0 003.934-1.233c.045-.021.092-.04.137-.062a16.583 16.583 0 002.299-1.314c.11-.075.22-.155.33-.234.263-.19.521-.386.773-.59.055-.045.115-.084.17-.13l.549-.459-.016-.014C30.914 25.681 33 21.33 33 16.5zm-31.8 0c0-8.437 6.863-15.3 15.3-15.3 8.437 0 15.3 6.863 15.3 15.3 0 4.546-1.995 8.633-5.153 11.438a4.497 4.497 0 00-.536-.322l-5.08-2.54a1.33 1.33 0 01-.74-1.196v-1.774c.118-.145.242-.31.37-.49a12.227 12.227 0 001.57-3.074 2.178 2.178 0 001.251-1.974v-2.127c0-.52-.19-1.024-.532-1.421v-2.8c.031-.312.142-2.069-1.13-3.519C20.714 5.44 18.925 4.8 16.5 4.8c-2.425 0-4.214.639-5.32 1.9-1.272 1.45-1.161 3.208-1.13 3.52v2.8c-.34.396-.532.9-.532 1.42v2.128c0 .66.296 1.277.804 1.692.486 1.904 1.486 3.345 1.856 3.834v1.736c0 .49-.267.94-.698 1.175l-4.744 2.588a4.336 4.336 0 00-.451.285C3.165 25.075 1.2 21.013 1.2 16.5zm24.275 12.38c-.21.152-.423.3-.64.44-.1.065-.198.13-.3.193a15.13 15.13 0 01-.865.498l-.196.1a15.31 15.31 0 01-2.092.886l-.077.025c-.376.125-.757.236-1.142.332h-.004c-.388.096-.782.176-1.178.241l-.032.006c-.373.061-.749.105-1.125.138l-.2.015c-.373.028-.748.046-1.124.046-.38 0-.76-.019-1.137-.047l-.196-.015a14.81 14.81 0 01-1.134-.14l-.05-.009a15.243 15.243 0 01-2.334-.582l-.07-.024c-.378-.129-.751-.27-1.118-.428l-.008-.004a15.213 15.213 0 01-1.023-.49l-.131-.067a15.42 15.42 0 01-1.164-.693 15.25 15.25 0 01-.802-.56l-.08-.062.057-.033 4.745-2.587a2.537 2.537 0 001.323-2.229l-.001-2.161-.138-.167c-.013-.015-1.31-1.593-1.8-3.73l-.055-.237-.205-.133a.994.994 0 01-.461-.835V14.44a.98.98 0 01.334-.734l.198-.178v-3.342l-.005-.079c-.002-.014-.18-1.457.837-2.616C12.95 6.502 14.437 6 16.5 6c2.056 0 3.538.498 4.408 1.48 1.015 1.146.849 2.616.847 2.628l-.005 3.42.198.18a.981.981 0 01.334.733v2.127a1 1 0 01-.708.945l-.299.092-.096.297a11.1 11.1 0 01-1.497 3.02c-.157.221-.31.418-.442.569l-.149.17v2.219c0 .967.538 1.837 1.403 2.27l5.08 2.539c.033.016.065.033.096.05-.064.048-.13.093-.195.14z"/></svg>