<svg width="29" height="29" fill="none" xmlns="http://www.w3.org/2000/svg"><rect width="29" height="29" rx="3" fill="#2CB742"/><path fill-rule="evenodd" clip-rule="evenodd" d="M19.106 10.034C17.884 8.724 16.259 8.002 14.527 8c-3.568 0-6.471 3.112-6.473 6.937a7.32 7.32 0 00.864 3.468L8 22l3.431-.965c.946.553 2.01.844 3.094.845h.002c3.568 0 6.472-3.113 6.473-6.938 0-1.853-.672-3.596-1.894-4.908zm-4.579 10.674h-.002a5.103 5.103 0 01-2.738-.804l-.197-.125-2.036.573.544-2.128-.128-.218a6.06 6.06 0 01-.823-3.069c.001-3.179 2.415-5.765 5.382-5.765 1.437 0 2.788.6 3.804 1.69 1.016 1.09 1.575 2.54 1.574 4.08-.001 3.18-2.414 5.766-5.38 5.766zm2.951-4.318c-.162-.087-.957-.507-1.105-.564-.148-.058-.256-.087-.364.086a9.98 9.98 0 01-.512.68c-.094.116-.189.13-.35.043-.162-.086-.683-.27-1.301-.86a5.19 5.19 0 01-.9-1.2c-.094-.174 0-.26.071-.354.175-.233.35-.478.405-.593.053-.116.026-.217-.014-.304s-.364-.94-.499-1.287c-.13-.338-.264-.292-.364-.298a5.966 5.966 0 00-.31-.006.577.577 0 00-.43.217c-.149.174-.567.593-.567 1.446s.58 1.678.66 1.793c.081.116 1.141 1.867 2.763 2.618.386.178.688.285.923.365.387.132.74.113 1.018.069.31-.05.957-.42 1.092-.825.135-.405.135-.752.094-.824-.04-.072-.148-.116-.31-.202z" fill="#fff"/></svg>